# xmcd CD database file
#
# Track frame offsets:
#	150
#	4444
#	22071
#	39800
#	51800
#	58481
#	79019
#	97394
#	115778
#	137360
#	156036
#	167268
#
# Disc length: 2406 seconds
#
# Revision: 0
# Processed by: cddbd v1.5.1PL0 Copyright (c) Steve Scherf et al.
# Submitted via: CDex 1.51
#
DISCID=9509640c
DTITLE=Tim Miller - Trio
DYEAR=2005
DGENRE=Jazz
TTITLE0=Intro
TTITLE1=Untied
TTITLE2=Shift
TTITLE3=Paris
TTITLE4=Sparkle
TTITLE5=Straight Lines
TTITLE6=The Trees, The Sun
TTITLE7=Density One
TTITLE8=TR
TTITLE9=Two View
TTITLE10=Density Two
TTITLE11=MG
EXTD=YEAR: 2005
EXTT0=
EXTT1=
EXTT2=
EXTT3=
EXTT4=
EXTT5=
EXTT6=
EXTT7=
EXTT8=
EXTT9=
EXTT10=
EXTT11=
PLAYORDER=
